HIERARCHY
ROOT Hips
{
  OFFSET 0 0 0
  CHANNELS 6 Xposition Yposition Zposition Zrotation Yrotation Xrotation
  JOINT LeftThigh
  {
    OFFSET 8.409438 0 -5.917753
    CHANNELS 3 Zrotation Yrotation Xrotation
    JOINT LeftLeg
    {
      OFFSET 0 0 -42.358652
      CHANNELS 3 Zrotation Yrotation Xrotation
      JOINT LeftFoot
      {
        OFFSET 0 0 -39.357303
        CHANNELS 3 Zrotation Yrotation Xrotation
      }
    }
  }
  JOINT RightThigh
  {
    OFFSET -8.409438 0 -5.917753
    CHANNELS 3 Zrotation Yrotation Xrotation
    JOINT RightLeg
    {
      OFFSET 0 0 -42.358652
      CHANNELS 3 Zrotation Yrotation Xrotation
      JOINT RightFoot
      {
        OFFSET 0 0 -39.357303
        CHANNELS 3 Zrotation Yrotation Xrotation
      }
    }
  }
  JOINT SpineLow
  {
    OFFSET 0 0 4.719101
    CHANNELS 3 Zrotation Yrotation Xrotation
    JOINT SpineMid
    {
      OFFSET 0 0 12.899191
      CHANNELS 3 Zrotation Yrotation Xrotation
      JOINT Chest
      {
        OFFSET 0 0 12.899191
        CHANNELS 3 Zrotation Yrotation Xrotation
        JOINT LeftShoulder
        {
          OFFSET 7.550562 1.41573 9.438202
          CHANNELS 3 Zrotation Yrotation Xrotation
          JOINT LeftArm
          {
            OFFSET 9.155056 0 4.247191
            CHANNELS 3 Zrotation Yrotation Xrotation
            JOINT LeftForearm
            {
              OFFSET 0 0 25.771955
              CHANNELS 3 Zrotation Yrotation Xrotation
              JOINT LeftHand
              {
                OFFSET 0 0 25.197169
                CHANNELS 3 Zrotation Yrotation Xrotation
              }
            }
          }
        }
        JOINT RightShoulder
        {
          OFFSET -7.550562 1.41573 9.438202
          CHANNELS 3 Zrotation Yrotation Xrotation
          JOINT RightArm
          {
            OFFSET -9.155056 0 4.247191
            CHANNELS 3 Zrotation Yrotation Xrotation
            JOINT RightForearm
            {
              OFFSET 0 0 -25.771955
              CHANNELS 3 Zrotation Yrotation Xrotation
              JOINT RightHand
              {
                OFFSET 0 0 -25.197169
                CHANNELS 3 Zrotation Yrotation Xrotation
              }
            }
          }
        }
        JOINT Neck
        {
          OFFSET 0 0 15.101124
          CHANNELS 3 Zrotation Yrotation Xrotation
          JOINT Head
          {
            OFFSET 0 0 11.325843
            CHANNELS 3 Zrotation Yrotation Xrotation
            End Site
            {
              OFFSET 0 0 14.157303
            }
          }
        }
      }
    }
  }
}
MOTION
Frames: 8
Frame Time: 0.0
0.0  89.887642  0.0  4.301469  28.976806  -93.638819  5.467066  -39.848136  4.070001  -2.42036  44.810306  40.362328  5.894285  2.105024  0.546277  -29.650584  2.505182  -38.574639  15.895292  19.010739  68.674092  5.450746  5.930289  0.15461  -2.219688  0.500643  0.558006  -6.056226  1.41824  1.478056  -6.056225  1.41824  1.478056  -15.54771  19.814857  5.856979  138.731663  47.259928  -146.521542  -30.446477  -6.912763  58.301551  72.7666  14.40709  22.341955  0.357952  -0.123789  20.249235  11.276406  63.84436  -18.827933  -23.629844  -12.55373  -76.813173  66.579242  0.289615  -35.238803  -20.795799  0.62369  4.148538  -15.601783  0.326973  3.136924  
0.0  89.887642  0.0  3.997084  29.415543  -93.776135  5.721361  -39.991852  3.442099  -2.413341  44.832136  40.846014  5.823459  2.13247  0.553506  -29.359535  3.110471  -38.236355  15.50047  18.531624  68.188918  5.57122  5.660459  0.043368  -2.265275  0.456543  0.575543  -6.181366  1.300456  1.529043  -6.181367  1.300456  1.529043  -15.569502  19.68347  5.791513  137.849401  46.946906  -146.431914  -30.812545  -7.899219  57.597873  73.022668  14.674895  22.335542  0.285139  -0.241937  20.150593  11.485321  63.664561  -18.501547  -23.534059  -13.394743  -76.562557  66.959719  -0.051333  -35.597345  -20.974808  0.419093  4.050492  -15.734638  0.175461  3.056525  
0.0  89.887642  0.0  3.682344  29.76444  -93.802496  7.177196  -40.481253  2.346784  -3.795015  45.151058  40.530779  5.854139  2.13123  0.576177  -28.850128  3.816094  -37.992937  14.62008  18.070972  67.642591  5.559465  5.443308  0.001897  -2.306812  0.439308  0.652055  -6.293768  1.261608  1.738777  -6.293769  1.261608  1.738777  -15.677534  19.242961  5.309626  137.817626  46.574122  -146.333959  -30.519561  -8.209017  57.454683  73.183823  14.896328  22.353287  0.143051  -0.395036  19.64708  11.285502  63.058999  -18.789651  -23.082755  -14.084672  -76.540363  67.312013  -0.358673  -35.4733  -21.145032  -0.055526  3.760423  -15.859153  -0.172096  2.822409  
0.0  89.887642  0.0  3.23861  30.153307  -93.79031  8.960325  -41.073558  0.947867  -5.594317  45.510003  39.952772  6.0264  2.159546  0.655366  -28.22504  4.437224  -37.776765  13.24922  17.928881  67.071135  5.536758  5.208706  -0.02624  -2.324266  0.409036  0.761228  -6.340177  1.189857  2.039447  -6.340177  1.189857  2.039447  -16.224144  18.697406  4.490491  137.66316  46.164722  -146.34374  -30.287507  -8.53119  57.456716  73.195681  15.022553  22.392341  -0.194453  -0.768721  18.976867  10.552393  62.535987  -19.342151  -22.516599  -14.508566  -76.753875  67.686663  -0.481394  -35.29487  -21.402873  -0.625793  3.357762  -16.049146  -0.587898  2.500008  
0.0  89.887642  0.0  2.698976  30.093424  -93.948221  10.84209  -41.613437  -0.264157  -6.943391  45.636629  39.653519  6.0166  2.163867  0.673799  -27.185709  4.853388  -37.423686  11.567509  18.289242  66.481944  5.591213  4.983372  -0.025454  -2.356964  0.358241  0.843819  -6.429627  1.06019  2.269263  -6.429627  1.06019  2.269263  -16.143321  18.419335  4.050255  137.442943  45.755554  -146.423906  -30.065102  -8.893112  57.702138  73.00386  15.012757  22.48258  -0.111198  -0.867184  18.510425  10.452469  61.901068  -19.637866  -22.407583  -14.264288  -76.716086  68.032991  -0.279714  -35.348946  -21.358049  -1.028849  3.009172  -16.013517  -0.87817  2.224062  
0.0  89.887642  0.0  2.2919  29.97791  -94.111796  12.169563  -41.900543  -1.085533  -7.746819  45.598369  39.557758  5.973219  2.178389  0.646813  -26.402763  5.163333  -37.162013  9.856506  18.986273  65.882099  5.733406  4.907413  0.009586  -2.486482  0.343744  0.877117  -6.783554  1.028415  2.359456  -6.783554  1.028415  2.359456  -15.459073  18.175075  3.93609  137.427088  45.343361  -146.37357  -29.613559  -8.500842  58.366148  72.984288  15.310234  21.94425  0.597006  -1.131847  18.457725  10.238033  61.4394  -19.908806  -22.449667  -13.674672  -76.696902  68.416718  0.196321  -35.515204  -20.887198  -1.300601  2.79649  -15.659179  -1.0726  2.055644  
0.0  89.887642  0.0  1.966357  29.717943  -94.268606  12.999422  -42.120796  -1.461256  -8.096389  45.571636  39.495601  5.877437  2.177294  0.600568  -25.946277  5.219047  -37.082356  8.666642  19.763621  65.401219  5.98244  4.887236  0.067104  -2.524946  0.311555  0.912662  -6.889227  0.945606  2.459195  -6.889227  0.945606  2.459194  -15.224166  18.140135  3.754629  137.369471  45.018721  -146.382506  -29.584675  -8.728751  58.581276  72.730559  15.40448  22.389335  0.964065  -1.128168  18.409231  9.891855  60.914629  -20.217488  -22.537222  -13.028974  -76.684378  68.772866  0.646577  -35.709989  -20.699098  -1.459531  2.534186  -15.517761  -1.182164  1.853587  
0.0  89.887642  0.0  1.813479  29.605631  -94.155569  13.230223  -42.193706  -1.696394  -8.26947  45.630246  39.149497  5.944346  2.2694  0.690273  -25.964154  4.963324  -37.28357  8.414843  20.499554  65.209476  6.321169  4.663402  0.181733  -2.654908  0.333329  0.880384  -7.244196  1.006281  2.366715  -7.244196  1.006281  2.366715  -14.544676  17.97977  3.805303  137.109149  44.639314  -146.324965  -29.45196  -8.764724  58.867594  72.586868  15.732113  22.397989  1.666311  -1.358816  18.58446  9.558244  60.538933  -20.548754  -23.129089  -12.427392  -76.281214  68.942399  0.892861  -36.627504  -20.240313  -1.568331  2.426211  -15.173357  -1.258307  1.769866  
